<svg xmlns="http://www.w3.org/2000/svg" xmlns:xlink="http://www.w3.org/1999/xlink" xmlns:serif="http://www.serif.com/" viewBox="0 0 100 100" version="1.1" xml:space="preserve" fill="#FFFFFF" style="" x="0px" y="0px" fill-rule="evenodd" clip-rule="evenodd" stroke-linejoin="round" stroke-miterlimit="2"><rect serif:id="Page 87" x="0" y="0" width="100" height="100" style="" fill="none"/><path d="M33.076,13.544c3.256,-1.385 6.23,-3.355 8.775,-5.813c4.422,-4.458 10.824,-2.274 12.501,-1.554c0.1,0.045 0.171,0.137 0.191,0.245c0.019,0.109 -0.015,0.219 -0.093,0.297c-1.451,1.452 -7.034,7.035 -7.034,7.035c-0.057,0.065 -0.075,0.08 -0.119,0.155c-0.115,0.198 -0.131,0.448 -0.043,0.659c0.037,0.09 0.097,0.169 0.162,0.242c0,0 5.741,5.742 7.093,7.094c0.072,0.072 0.107,0.172 0.097,0.272c-0.01,0.101 -0.065,0.192 -0.15,0.247c-0.853,0.554 -3.285,1.858 -6.775,1.456c-8.167,-0.903 -16.333,1.714 -22.454,7.196c-6.121,5.482 -9.619,13.311 -9.619,21.528c-0.038,0 -0.038,0 -0.038,0c0,19.003 15.427,34.43 34.43,34.43c19.003,0 34.43,-15.427 34.43,-34.43c0,-17.401 -12.936,-31.805 -29.709,-34.109c-1.137,-0.157 -2.191,-0.682 -3.003,-1.494c-0.235,-0.235 -0.486,-0.485 -0.735,-0.734c-1.095,-1.096 -1.095,-2.872 0,-3.967c0,0 0,0 0,0c1.308,-1.308 3.155,-1.927 4.988,-1.671c20.574,2.906 36.421,20.605 36.421,41.975c0,23.397 -18.995,42.392 -42.392,42.392c-23.397,0 -42.392,-18.995 -42.392,-42.392c0,-17.534 10.348,-32.609 25.468,-39.059Zm12.014,-5.962c0.688,0 1.246,0.654 1.246,1.459c0,0.805 -0.558,1.459 -1.246,1.459c-0.687,0 -1.245,-0.654 -1.245,-1.459c0,-0.805 0.558,-1.459 1.245,-1.459Z"/>
</svg>